<svg xmlns="http://www.w3.org/2000/svg" viewBox="0 0 158.19 44.87"><defs><style>.cls-1{fill:#002d4f;}.cls-2{fill:#005128;}.cls-3{fill:#fff;}</style></defs><title>Asset 1</title><g id="Layer_2" data-name="Layer 2"><g id="Logo_2" data-name="Logo 2"><path class="cls-1" d="M15.76,2.25a13.3,13.3,0,0,1,3.07,1.8,1.2,1.2,0,0,0,.71.34c.5,0,.83-.75,1-2.25h.86q-.15,2.43-.15,8.63h-.86a31,31,0,0,0-.75-3.51,6.41,6.41,0,0,0-1.13-2A7,7,0,0,0,15.63,3a9.65,9.65,0,0,0-3.78-.73A6.22,6.22,0,0,0,7.6,3.9,10.52,10.52,0,0,0,4.76,8.5a21.93,21.93,0,0,0-1,7,20.07,20.07,0,0,0,1.09,7,9.76,9.76,0,0,0,3,4.44,6.84,6.84,0,0,0,4.37,1.52,9.55,9.55,0,0,0,3.64-.71,6.08,6.08,0,0,0,2.77-2.14,7.1,7.1,0,0,0,1.09-2.25,25.64,25.64,0,0,0,.64-3.67h.86q0,6.45.15,9h-.86A6.37,6.37,0,0,0,20.2,27c-.14-.34-.33-.5-.58-.5a1.57,1.57,0,0,0-.79.3,15.64,15.64,0,0,1-3.22,1.81,9.85,9.85,0,0,1-3.72.62,11.81,11.81,0,0,1-6.24-1.61,10.74,10.74,0,0,1-4.17-4.67A16.56,16.56,0,0,1,0,15.64,16.82,16.82,0,0,1,1.52,8.33,11.72,11.72,0,0,1,5.76,3.38a11.05,11.05,0,0,1,6.17-1.77A10.33,10.33,0,0,1,15.76,2.25Z"/><path class="cls-1" d="M39,9.72a2.7,2.7,0,0,1,1,2.1,2.52,2.52,0,0,1-.58,1.67,1.94,1.94,0,0,1-1.56.69,2,2,0,0,1-1.41-.52,1.86,1.86,0,0,1-.58-1.43,2.34,2.34,0,0,1,1.28-2,.9.9,0,0,0-.79-.37A3.79,3.79,0,0,0,33.69,11a8.08,8.08,0,0,0-1.88,2.8,8.23,8.23,0,0,0-.67,3.11v8a2.7,2.7,0,0,0,1,2.41,5.34,5.34,0,0,0,3,.67v.79l-.9,0c-2.55-.07-4.17-.11-4.87-.11s-2.13.05-4.43.15v-.79a3.26,3.26,0,0,0,2.21-.58,2.78,2.78,0,0,0,.64-2.12V13.47A4,4,0,0,0,27.12,11a2.7,2.7,0,0,0-2.21-.78V9.38c.8.07,1.57.11,2.33.11A12.31,12.31,0,0,0,31.14,9v4.69a8.92,8.92,0,0,1,2.15-3.34,4.59,4.59,0,0,1,3.29-1.47A3.48,3.48,0,0,1,39,9.72Z"/><path class="cls-1" d="M47.83,25.21a2.78,2.78,0,0,0,.64,2.12,3.26,3.26,0,0,0,2.21.58v.79c-2.3-.1-3.81-.15-4.54-.15s-2.24.05-4.54.15v-.79a3.3,3.3,0,0,0,2.22-.58,2.83,2.83,0,0,0,.63-2.12V13.47A4.06,4.06,0,0,0,43.82,11a2.74,2.74,0,0,0-2.22-.78V9.38c.8.07,1.58.11,2.33.11A12.31,12.31,0,0,0,47.83,9ZM47.57.71a2.34,2.34,0,0,1,.71,1.69,2.34,2.34,0,0,1-.71,1.69,2.37,2.37,0,0,1-3.38,0,2.34,2.34,0,0,1-.71-1.69A2.34,2.34,0,0,1,44.19.71a2.37,2.37,0,0,1,3.38,0Z"/><path class="cls-1" d="M82,27.33a3.3,3.3,0,0,0,2.22.58v.79c-2.31-.1-3.81-.15-4.51-.15s-2.1.05-4.2.15v-.79a2.56,2.56,0,0,0,1.93-.58A3.09,3.09,0,0,0,78,25.21V14.37a13,13,0,0,0-.17-2.31,2.51,2.51,0,0,0-.79-1.44,2.7,2.7,0,0,0-1.89-.57,4.12,4.12,0,0,0-2.59.9,5.93,5.93,0,0,0-1.82,2.46,8.7,8.7,0,0,0-.66,3.43v8.37a2.82,2.82,0,0,0,.64,2.12,3.27,3.27,0,0,0,2.21.58v.79q-3.45-.15-4.5-.15t-4.2.15v-.79a2.56,2.56,0,0,0,1.93-.58,3.14,3.14,0,0,0,.55-2.12V14.37a13,13,0,0,0-.17-2.31,2.51,2.51,0,0,0-.79-1.44,2.7,2.7,0,0,0-1.89-.57,4.1,4.1,0,0,0-2.59.9,5.93,5.93,0,0,0-1.82,2.48,8.84,8.84,0,0,0-.66,3.45v8.33a3.09,3.09,0,0,0,.55,2.12,2.56,2.56,0,0,0,1.93.58v.79c-2.1-.1-3.51-.15-4.2-.15s-2.21.05-4.51.15v-.79a3.3,3.3,0,0,0,2.22-.58,2.83,2.83,0,0,0,.63-2.12V13.47A4.06,4.06,0,0,0,54.81,11a2.74,2.74,0,0,0-2.22-.78V9.38c.8.07,1.58.11,2.33.11A12.27,12.27,0,0,0,58.82,9v4.42A7,7,0,0,1,61.37,10,6.32,6.32,0,0,1,65,8.85a5.16,5.16,0,0,1,3.91,1.43,5.06,5.06,0,0,1,1.16,3,6.75,6.75,0,0,1,2.59-3.4,6.78,6.78,0,0,1,3.63-1,5.13,5.13,0,0,1,3.91,1.43,4.25,4.25,0,0,1,1,1.91,13.05,13.05,0,0,1,.28,3v10A2.82,2.82,0,0,0,82,27.33Z"/><path class="cls-1" d="M95,9.27a5.74,5.74,0,0,1,1.69,1,1.26,1.26,0,0,0,.67.3c.45,0,.73-.55.83-1.65h.86c-.1,1.23-.15,3.35-.15,6.38h-.86a9.58,9.58,0,0,0-1.59-4.09A4.06,4.06,0,0,0,93,9.57a3.24,3.24,0,0,0-2.22.76,2.73,2.73,0,0,0-.86,2.13,3,3,0,0,0,.9,2.19,17.6,17.6,0,0,0,2.89,2.12c.23.12.56.34,1,.64a33.59,33.59,0,0,1,2.78,2,7.51,7.51,0,0,1,1.71,2A5.13,5.13,0,0,1,99.82,24,4.55,4.55,0,0,1,98,27.83a7.38,7.38,0,0,1-4.56,1.39,7.76,7.76,0,0,1-3-.52,7.8,7.8,0,0,1-1.53-1,.48.48,0,0,0-.34-.15c-.18,0-.33.12-.47.37A3.44,3.44,0,0,0,87.78,29h-.86q.15-2.13.15-7.5h.86a13.25,13.25,0,0,0,1.5,5.27,4,4,0,0,0,3.72,1.74,3.44,3.44,0,0,0,2.32-.86,3.34,3.34,0,0,0,1-2.7,3.42,3.42,0,0,0-1-2.48A19.11,19.11,0,0,0,92.25,20c-1.23-.78-2.17-1.42-2.84-1.92a6.7,6.7,0,0,1-1.67-1.84,4.71,4.71,0,0,1-.67-2.55,4.31,4.31,0,0,1,1.57-3.6,6.28,6.28,0,0,1,4-1.24A6.42,6.42,0,0,1,95,9.27Z"/><path class="cls-1" d="M118,11.39q2.34,2.52,2.34,7.67c0,3.42-.78,6-2.34,7.65a8.85,8.85,0,0,1-12.35,0c-1.56-1.67-2.34-4.23-2.34-7.65s.78-6,2.34-7.67a8.78,8.78,0,0,1,12.35,0Zm-9.74.52c-.88,1.54-1.31,3.92-1.31,7.15s.43,5.6,1.31,7.12a3.92,3.92,0,0,0,7.13,0c.87-1.52,1.31-3.9,1.31-7.12s-.44-5.61-1.31-7.15a3.91,3.91,0,0,0-7.13,0Z"/><path class="cls-1" d="M139.81,10.28a4.2,4.2,0,0,1,1,1.87,12.36,12.36,0,0,1,.3,3v10a2.83,2.83,0,0,0,.63,2.12,3.3,3.3,0,0,0,2.22.58v.79c-2.3-.1-3.81-.15-4.51-.15s-2.1.05-4.2.15v-.79a2.6,2.6,0,0,0,1.94-.58,3.14,3.14,0,0,0,.54-2.12V14.37a6.89,6.89,0,0,0-.6-3.21,2.51,2.51,0,0,0-2.44-1.11A4.44,4.44,0,0,0,132,11a5.74,5.74,0,0,0-1.85,2.46,8.83,8.83,0,0,0-.66,3.47v8.33a3.14,3.14,0,0,0,.54,2.12,2.59,2.59,0,0,0,1.93.58v.79q-3.15-.15-4.2-.15t-4.5.15v-.79a3.26,3.26,0,0,0,2.21-.58,2.78,2.78,0,0,0,.64-2.12V13.47a4,4,0,0,0-.64-2.52,2.7,2.7,0,0,0-2.21-.78V9.38c.8.07,1.58.11,2.33.11a12.31,12.31,0,0,0,3.9-.52v4.42a6.47,6.47,0,0,1,6.38-4.54A5.21,5.21,0,0,1,139.81,10.28Z"/><path class="cls-1" d="M151.67,9.42h5.55v.75h-5.55V24.68a3.78,3.78,0,0,0,.62,2.44,2.16,2.16,0,0,0,1.78.75,2.56,2.56,0,0,0,2-.93,7.72,7.72,0,0,0,1.39-3.08l.75.19c-.62,3.45-2.25,5.17-4.87,5.17a6.23,6.23,0,0,1-2.1-.3,4.08,4.08,0,0,1-1.47-.93,4.39,4.39,0,0,1-1.14-2,13.2,13.2,0,0,1-.32-3.23V10.17h-3.6V9.42h3.6V3.68a11.67,11.67,0,0,0,3.38-.53Z"/><path class="cls-2" d="M28.71,39.66v1H27.45v4.17h-1V40.64h-1.2v-1Z"/><path class="cls-2" d="M45.07,44.81,44,43.17H43.3v1.64h-1V39.66h1.56a2.2,2.2,0,0,1,1.49.46,1.62,1.62,0,0,1,.52,1.27,2.11,2.11,0,0,1-.19.9,1.55,1.55,0,0,1-.62.65l1.2,1.87ZM43.3,42.19H44a.74.74,0,0,0,.61-.24.84.84,0,0,0,.18-.52,1,1,0,0,0-.16-.54.66.66,0,0,0-.62-.25H43.3Z"/><path class="cls-2" d="M62.24,43.8H60.53l-.42,1h-1l2.32-5.35h.06l2.32,5.35H62.64ZM61.9,43l-.5-1.25L60.89,43Z"/><path class="cls-2" d="M77.16,39.66H78.7a3.2,3.2,0,0,1,1.63.38,2.25,2.25,0,0,1,.92,1,2.85,2.85,0,0,1,.29,1.3,2.4,2.4,0,0,1-1.29,2.18,2.8,2.8,0,0,1-1.3.3H77.16Zm1.62,4.17A1.78,1.78,0,0,0,80,43.42a1.46,1.46,0,0,0,.46-1.16,1.65,1.65,0,0,0-.25-1,1.38,1.38,0,0,0-.6-.51,1.72,1.72,0,0,0-.64-.14h-.82v3.2Z"/><path class="cls-2" d="M98.67,39.66v1h-2.5v1.1h2.22v1H96.17v1.11h2.6v1H95.16V39.66Z"/><path class="cls-2" d="M115.2,44.81l-1.09-1.64h-.67v1.64h-1V39.66H114a2.18,2.18,0,0,1,1.49.46,1.62,1.62,0,0,1,.53,1.27,2.12,2.12,0,0,1-.2.9,1.59,1.59,0,0,1-.61.65l1.19,1.87Zm-1.76-2.62h.72a.73.73,0,0,0,.6-.24.85.85,0,0,0,.19-.52,1.06,1.06,0,0,0-.16-.54.69.69,0,0,0-.63-.25h-.72Z"/><path class="cls-2" d="M131.4,40.53a.89.89,0,0,0-.52.14.45.45,0,0,0-.18.4.54.54,0,0,0,.27.43,3.61,3.61,0,0,0,.71.35,3.37,3.37,0,0,1,.63.3,1.41,1.41,0,0,1,.6,1.24,1.38,1.38,0,0,1-.21.74,1.58,1.58,0,0,1-.6.54,2.18,2.18,0,0,1-.95.2,3.21,3.21,0,0,1-.92-.14,2.7,2.7,0,0,1-.85-.42l.45-.79a2.35,2.35,0,0,0,.61.32,1.67,1.67,0,0,0,.61.13,1.11,1.11,0,0,0,.56-.14.47.47,0,0,0,.24-.44q0-.41-.75-.69a6.48,6.48,0,0,1-.73-.34,1.49,1.49,0,0,1-.51-.46,1.29,1.29,0,0,1-.21-.76,1.39,1.39,0,0,1,.43-1.07,1.78,1.78,0,0,1,1.17-.44,3,3,0,0,1,1,.13,3.27,3.27,0,0,1,.75.37l-.39.77A2.61,2.61,0,0,0,131.4,40.53Z"/><rect class="cls-2" x="58" y="34" width="14.06" height="1.4"/><rect class="cls-1" x="86.13" y="34" width="14.06" height="1.4"/><rect class="cls-3" x="72.06" y="34" width="14.06" height="1.4"/></g></g></svg>