<svg xmlns="http://www.w3.org/2000/svg" width="384.558" height="119.837" viewBox="0 0 384.558 119.837"><g transform="translate(-569.011 -205.858)"><g transform="translate(569.011 205.858)"><path d="M611.1,209.175a34.7,34.7,0,0,1,8.216,4.81,3.252,3.252,0,0,0,1.9.9q2,0,2.6-6.012h2.305q-.4,6.515-.4,23.045h-2.3a79.079,79.079,0,0,0-2-9.37,16.717,16.717,0,0,0-3.007-5.459,18.542,18.542,0,0,0-7.663-5.866,25.813,25.813,0,0,0-10.072-1.952,16.606,16.606,0,0,0-11.373,4.308q-4.856,4.311-7.564,12.276a58.2,58.2,0,0,0-2.7,18.686,53.829,53.829,0,0,0,2.906,18.74q2.9,7.813,8.064,11.872a18.384,18.384,0,0,0,11.672,4.06,25.768,25.768,0,0,0,9.72-1.9,16.366,16.366,0,0,0,7.415-5.713,19.235,19.235,0,0,0,2.906-6.012,70.861,70.861,0,0,0,1.7-9.819h2.3q0,17.236.4,24.047H623.82a17.7,17.7,0,0,0-.852-4.559c-.368-.9-.887-1.352-1.552-1.352a4.376,4.376,0,0,0-2.1.8,42.28,42.28,0,0,1-8.617,4.859,26.566,26.566,0,0,1-9.92,1.656,31.737,31.737,0,0,1-16.683-4.311,28.72,28.72,0,0,1-11.122-12.476q-3.958-8.165-3.958-19.487a44.94,44.94,0,0,1,4.057-19.538,31.47,31.47,0,0,1,11.325-13.227,29.626,29.626,0,0,1,16.48-4.709A27.272,27.272,0,0,1,611.1,209.175Z" transform="translate(-569.011 -203.163)" fill="#002d4f"/><path d="M631.645,217.016a7.277,7.277,0,0,1,2.556,5.612,6.706,6.706,0,0,1-1.554,4.458,5.147,5.147,0,0,1-4.159,1.856,5.4,5.4,0,0,1-3.758-1.4,4.866,4.866,0,0,1-1.552-3.809q0-3.305,3.405-5.409a2.394,2.394,0,0,0-2.1-1,10.09,10.09,0,0,0-7.113,3.056,21.271,21.271,0,0,0-5.011,7.463,22.033,22.033,0,0,0-1.8,8.32V257.4q0,4.611,2.658,6.413t7.965,1.8v2.1l-2.4-.1q-10.221-.3-13.026-.3-2.608,0-11.825.4v-2.1q4.211,0,5.911-1.552t1.7-5.662v-31.36q0-4.611-1.7-6.715t-5.911-2.1v-2.1q3.205.3,6.213.3a32.756,32.756,0,0,0,10.42-1.4v12.524a23.731,23.731,0,0,1,5.764-8.918,12.234,12.234,0,0,1,8.766-3.908A9.442,9.442,0,0,1,631.645,217.016Z" transform="translate(-527.388 -191.065)" fill="#002d4f"/><path d="M627.248,273.191q0,4.111,1.7,5.663c1.133,1.036,3.107,1.552,5.908,1.552v2.1q-9.215-.4-12.124-.4t-12.124.4v-2.1q4.211,0,5.911-1.552t1.7-5.663v-31.36q0-4.611-1.7-6.715t-5.911-2.1v-2.1q3.205.3,6.213.3a32.773,32.773,0,0,0,10.422-1.4Zm-.7-65.429a6.289,6.289,0,1,1-4.509-1.9A6.165,6.165,0,0,1,626.546,207.762Z" transform="translate(-499.495 -205.858)" fill="#002d4f"/><path d="M700.262,264.06q1.7,1.555,5.914,1.552v2.1q-9.223-.4-12.025-.4t-11.224.4v-2.1q3.706,0,5.161-1.552t1.453-5.662V229.442a34.145,34.145,0,0,0-.451-6.165,6.776,6.776,0,0,0-2.1-3.857,7.326,7.326,0,0,0-5.059-1.5,11,11,0,0,0-6.913,2.4,15.917,15.917,0,0,0-4.861,6.563,23.358,23.358,0,0,0-1.755,9.17V258.4q0,4.111,1.707,5.662t5.911,1.552v2.1q-9.223-.4-12.025-.4t-11.224.4v-2.1q3.706,0,5.16-1.552t1.453-5.662V229.442a33.893,33.893,0,0,0-.451-6.165,6.788,6.788,0,0,0-2.1-3.857,7.339,7.339,0,0,0-5.062-1.5,11,11,0,0,0-6.912,2.4,15.866,15.866,0,0,0-4.861,6.613,23.769,23.769,0,0,0-1.752,9.22V258.4q0,4.111,1.453,5.662t5.16,1.552v2.1q-8.418-.4-11.223-.4t-12.025.4v-2.1q4.211,0,5.911-1.552t1.7-5.662v-31.36q0-4.611-1.7-6.715t-5.911-2.1v-2.1q3.2.3,6.215.3a32.754,32.754,0,0,0,10.419-1.4v11.822a18.744,18.744,0,0,1,6.814-9.167,16.938,16.938,0,0,1,9.618-2.957q6.815,0,10.422,3.809,2.5,2.608,3.107,8.016,2.5-6.314,6.912-9.068a17.964,17.964,0,0,1,9.717-2.756q6.819,0,10.425,3.809a11.581,11.581,0,0,1,2.553,5.11,35.182,35.182,0,0,1,.751,8.016V258.4Q698.558,262.508,700.262,264.06Z" transform="translate(-481.129 -191.065)" fill="#002d4f"/><path d="M677.572,215.814a15.219,15.219,0,0,1,4.509,2.6,3.386,3.386,0,0,0,1.806.8q1.8,0,2.2-4.407h2.3q-.4,4.908-.4,17.033h-2.308a25.234,25.234,0,0,0-4.255-10.919q-3.161-4.311-9.37-4.311a8.561,8.561,0,0,0-5.914,2.054,7.2,7.2,0,0,0-2.3,5.663,7.862,7.862,0,0,0,2.4,5.86,46.856,46.856,0,0,0,7.716,5.66q.9.5,2.7,1.7a86.538,86.538,0,0,1,7.417,5.31,19.824,19.824,0,0,1,4.557,5.313,13.491,13.491,0,0,1,1.755,6.915,12.151,12.151,0,0,1-4.96,10.318,19.747,19.747,0,0,1-12.174,3.71,16.058,16.058,0,0,1-12.025-4.111,1.259,1.259,0,0,0-.9-.4c-.467,0-.884.336-1.253,1a9.116,9.116,0,0,0-.849,2.807h-2.3q.4-5.713.4-20.04h2.3q1.106,9.419,4.009,14.076t9.92,4.664a9.31,9.31,0,0,0,6.213-2.308q2.7-2.3,2.706-7.214a9.08,9.08,0,0,0-2.655-6.611,50.492,50.492,0,0,0-8.667-6.515q-4.912-3.1-7.564-5.11a17.859,17.859,0,0,1-4.46-4.912,12.653,12.653,0,0,1-1.8-6.814q0-6.31,4.207-9.616a16.662,16.662,0,0,1,10.622-3.309A17.458,17.458,0,0,1,677.572,215.814Z" transform="translate(-423.772 -191.065)" fill="#002d4f"/><path d="M711.591,221.477q6.258,6.759,6.264,20.492t-6.264,20.438q-6.266,6.715-16.483,6.715t-16.485-6.715q-6.258-6.711-6.263-20.438t6.263-20.492q6.266-6.767,16.485-6.766T711.591,221.477Zm-26,1.4q-3.51,6.162-3.507,19.09T685.589,261q3.506,6.118,9.519,6.117T704.625,261q3.506-6.11,3.507-19.033t-3.507-19.09q-3.51-6.162-9.517-6.165T685.589,222.879Z" transform="translate(-396.318 -191.065)" fill="#002d4f"/><path d="M736.53,218.52a11.378,11.378,0,0,1,2.706,5.008,32.748,32.748,0,0,1,.8,8.117V258.4q0,4.111,1.7,5.662t5.911,1.552v2.1q-9.215-.4-12.025-.4t-11.221.4v-2.1q3.706,0,5.16-1.552t1.453-5.662V229.442q0-5.609-1.6-8.569t-6.512-2.954a11.852,11.852,0,0,0-7.316,2.4,15.548,15.548,0,0,0-4.96,6.563,23.616,23.616,0,0,0-1.752,9.271V258.4q0,4.111,1.453,5.662t5.158,1.552v2.1q-8.414-.4-11.221-.4t-12.025.4v-2.1q4.211,0,5.911-1.552t1.7-5.662v-31.36q0-4.611-1.7-6.715t-5.911-2.1v-2.1q3.205.3,6.213.3a32.773,32.773,0,0,0,10.422-1.4v11.822q2.5-6.41,6.963-9.266a18.256,18.256,0,0,1,10.07-2.858Q732.921,214.711,736.53,218.52Z" transform="translate(-363.093 -191.065)" fill="#002d4f"/></g><g transform="translate(616.459 311.242)"><path d="M596.049,245.516v2.62H592.7v11.141h-2.711V248.136h-3.216v-2.62Z" transform="translate(-586.775 -244.974)" fill="#005128"/><path d="M611.25,259.277l-2.9-4.372h-1.814v4.372h-2.711V245.516H608a5.815,5.815,0,0,1,3.974,1.245,4.29,4.29,0,0,1,1.41,3.392,5.44,5.44,0,0,1-.531,2.385,3.975,3.975,0,0,1-1.637,1.747l3.2,4.992Zm-4.712-6.993h1.926a1.913,1.913,0,0,0,1.608-.644,2.216,2.216,0,0,0,.505-1.392,2.627,2.627,0,0,0-.43-1.432,1.817,1.817,0,0,0-1.664-.681h-1.944Z" transform="translate(-558.281 -244.974)" fill="#005128"/><path d="M629,256.926h-4.562l-1.122,2.69h-2.674l6.21-14.3H627l6.21,14.3h-3.141Zm-.9-2.284L626.78,251.3l-1.381,3.347Z" transform="translate(-530.175 -245.313)" fill="#005128"/><path d="M638.7,245.516h4.113a8.348,8.348,0,0,1,4.338,1.02,6.174,6.174,0,0,1,2.479,2.636,7.936,7.936,0,0,1,.775,3.467,6.511,6.511,0,0,1-.935,3.5,6.274,6.274,0,0,1-2.513,2.326,7.468,7.468,0,0,1-3.47.812H638.7Zm4.319,11.143a4.9,4.9,0,0,0,3.347-1.082,3.935,3.935,0,0,0,1.234-3.122,4.474,4.474,0,0,0-.684-2.62,3.69,3.69,0,0,0-1.587-1.346,4.568,4.568,0,0,0-1.712-.371h-2.206v8.542Z" transform="translate(-500.007 -244.974)" fill="#005128"/><path d="M666.084,245.516v2.62h-6.675v2.933h5.908v2.62h-5.908v2.97h6.939v2.618H656.7V245.516Z" transform="translate(-469.934 -244.974)" fill="#005128"/><path d="M681.383,259.277l-2.9-4.372h-1.814v4.372H673.96V245.516h4.169a5.814,5.814,0,0,1,3.974,1.245,4.3,4.3,0,0,1,1.41,3.392,5.442,5.442,0,0,1-.531,2.385,3.974,3.974,0,0,1-1.637,1.747l3.2,4.992Zm-4.712-6.993H678.6a1.913,1.913,0,0,0,1.608-.644,2.215,2.215,0,0,0,.5-1.392,2.627,2.627,0,0,0-.43-1.432,1.817,1.817,0,0,0-1.664-.681h-1.945Z" transform="translate(-441.09 -244.974)" fill="#005128"/><path d="M696.323,247.9a2.35,2.35,0,0,0-1.392.358,1.221,1.221,0,0,0-.5,1.063,1.406,1.406,0,0,0,.721,1.151,9.078,9.078,0,0,0,1.918.945,7.986,7.986,0,0,1,1.664.812,3.63,3.63,0,0,1,1.146,1.263,4.053,4.053,0,0,1,.459,2.038,3.747,3.747,0,0,1-.55,1.971,3.871,3.871,0,0,1-1.616,1.44,5.642,5.642,0,0,1-2.543.532,8.45,8.45,0,0,1-2.449-.363,7.652,7.652,0,0,1-2.265-1.114l1.2-2.113a6.519,6.519,0,0,0,1.629.863,4.816,4.816,0,0,0,1.645.337,2.953,2.953,0,0,0,1.493-.366,1.263,1.263,0,0,0,.638-1.186q0-1.066-2-1.854a17.567,17.567,0,0,1-1.966-.9,4.013,4.013,0,0,1-1.357-1.234,3.42,3.42,0,0,1-.566-2.019,3.717,3.717,0,0,1,1.167-2.861,4.744,4.744,0,0,1,3.112-1.175,8.157,8.157,0,0,1,2.561.345,8.736,8.736,0,0,1,2,.983l-1.028,2.073A6.711,6.711,0,0,0,696.323,247.9Z" transform="translate(-412.75 -245.019)" fill="#005128"/></g><g transform="translate(703.039 296.67)"><rect width="37.564" height="3.738" fill="#005128"/><g transform="translate(75.128)"><rect width="37.564" height="3.738" fill="#002d4f"/></g><g transform="translate(37.564)"><rect width="37.564" height="3.738" fill="#fff"/></g></g></g></svg>